<svg width="20" height="24" viewBox="0 0 20 24" fill="none" xmlns="http://www.w3.org/2000/svg">
<path d="M15.3334 5.33333C15.3334 6.74782 14.7715 8.10438 13.7713 9.10457C12.7711 10.1048 11.4146 10.6667 10.0001 10.6667C8.58559 10.6667 7.22904 10.1048 6.22885 9.10457C5.22865 8.10438 4.66675 6.74782 4.66675 5.33333C4.66675 3.91885 5.22865 2.56229 6.22885 1.5621C7.22904 0.561903 8.58559 0 10.0001 0C11.4146 0 12.7711 0.561903 13.7713 1.5621C14.7715 2.56229 15.3334 3.91885 15.3334 5.33333ZM10.0001 14.6667C7.52473 14.6667 5.15076 15.65 3.40042 17.4003C1.65008 19.1507 0.666748 21.5246 0.666748 24H19.3334C19.3334 21.5246 18.3501 19.1507 16.5997 17.4003C14.8494 15.65 12.4754 14.6667 10.0001 14.6667Z" fill="#32B768"/>
</svg>
